<svg width="28" height="28" viewBox="0 0 28 28" fill="none" xmlns="http://www.w3.org/2000/svg">
<path d="M6.41675 25.6667C5.95008 25.6667 5.54175 25.4917 5.19175 25.1417C4.84175 24.7917 4.66675 24.3833 4.66675 23.9167V8.75001C4.66675 8.28334 4.84175 7.87501 5.19175 7.52501C5.54175 7.17501 5.95008 7.00001 6.41675 7.00001H9.62508V6.70834C9.62508 5.48334 10.048 4.44793 10.8938 3.60209C11.7397 2.75626 12.7751 2.33334 14.0001 2.33334C15.2251 2.33334 16.2605 2.75626 17.1063 3.60209C17.9522 4.44793 18.3751 5.48334 18.3751 6.70834V7.00001H21.5834C22.0501 7.00001 22.4584 7.17501 22.8084 7.52501C23.1584 7.87501 23.3334 8.28334 23.3334 8.75001V23.9167C23.3334 24.3833 23.1584 24.7917 22.8084 25.1417C22.4584 25.4917 22.0501 25.6667 21.5834 25.6667H6.41675ZM6.41675 23.9167H21.5834V8.75001H18.3751V11.375C18.3751 11.6278 18.2924 11.8368 18.1272 12.0021C17.9619 12.1674 17.7529 12.25 17.5001 12.25C17.2473 12.25 17.0383 12.1674 16.873 12.0021C16.7077 11.8368 16.6251 11.6278 16.6251 11.375V8.75001H11.3751V11.375C11.3751 11.6278 11.2924 11.8368 11.1272 12.0021C10.9619 12.1674 10.7529 12.25 10.5001 12.25C10.2473 12.25 10.0383 12.1674 9.873 12.0021C9.70772 11.8368 9.62508 11.6278 9.62508 11.375V8.75001H6.41675V23.9167ZM11.3751 7.00001H16.6251V6.70834C16.6251 5.96945 16.3723 5.34723 15.8667 4.84168C15.3612 4.33612 14.739 4.08334 14.0001 4.08334C13.2612 4.08334 12.639 4.33612 12.1334 4.84168C11.6279 5.34723 11.3751 5.96945 11.3751 6.70834V7.00001ZM6.41675 23.9167V8.75001V23.9167Z" fill="#CCCCCC"/>
</svg>
