<svg width="34" height="34" viewBox="0 0 34 34" fill="none" xmlns="http://www.w3.org/2000/svg">
<g clip-path="url(#clip0_109_179)">
<path d="M34 17C34 21.5087 32.2089 25.8327 29.0208 29.0208C25.8327 32.2089 21.5087 34 17 34C12.4913 34 8.1673 32.2089 4.97919 29.0208C1.79107 25.8327 0 21.5087 0 17C0 12.4913 1.79107 8.1673 4.97919 4.97919C8.1673 1.79107 12.4913 0 17 0C21.5087 0 25.8327 1.79107 29.0208 4.97919C32.2089 8.1673 34 12.4913 34 17ZM25.5637 10.5612C25.412 10.41 25.2312 10.2909 25.0324 10.2111C24.8335 10.1313 24.6206 10.0924 24.4063 10.0968C24.1921 10.1011 23.9809 10.1486 23.7854 10.2365C23.59 10.3243 23.4143 10.4507 23.2687 10.608L15.8886 20.0111L11.441 15.5614C11.1389 15.2799 10.7393 15.1266 10.3264 15.1339C9.9135 15.1412 9.51956 15.3084 9.22755 15.6004C8.93555 15.8924 8.76829 16.2864 8.761 16.6993C8.75372 17.1122 8.90698 17.5118 9.1885 17.8139L14.8112 23.4387C14.9627 23.5899 15.1431 23.7091 15.3416 23.7891C15.5401 23.869 15.7527 23.9082 15.9667 23.9042C16.1807 23.9003 16.3917 23.8533 16.5871 23.766C16.7825 23.6787 16.9584 23.553 17.1041 23.3962L25.5871 12.7925C25.8763 12.4918 26.0361 12.0897 26.0321 11.6725C26.0281 11.2554 25.8607 10.8564 25.5659 10.5612H25.5637Z" fill="#00FF7A"/>
</g>
<defs>
<clipPath id="clip0_109_179">
<rect width="34" height="34" fill="white"/>
</clipPath>
</defs>
</svg>
