<svg width="24" height="24" viewBox="0 0 24 24" fill="none" xmlns="http://www.w3.org/2000/svg">
<circle r="12" transform="matrix(-1 0 0 1 12 12)" fill="white" fill-opacity="0.2"/>
<path d="M17.0171 6.9909C16.7065 6.68032 16.2048 6.68032 15.8942 6.9909L12 10.8771L8.1058 6.98294C7.79522 6.67235 7.29352 6.67235 6.98294 6.98294C6.67235 7.29352 6.67235 7.79522 6.98294 8.1058L10.8771 12L6.98294 15.8942C6.67235 16.2048 6.67235 16.7065 6.98294 17.0171C7.29352 17.3276 7.79522 17.3276 8.1058 17.0171L12 13.1229L15.8942 17.0171C16.2048 17.3276 16.7065 17.3276 17.0171 17.0171C17.3276 16.7065 17.3276 16.2048 17.0171 15.8942L13.1229 12L17.0171 8.1058C17.3197 7.80319 17.3197 7.29352 17.0171 6.9909V6.9909Z" fill="#24363B" fill-opacity="0.75" stroke="#293A3F" stroke-opacity="0.75"/>
</svg>
