<svg width="800" height="800" viewBox="0 0 800 800" fill="none" xmlns="http://www.w3.org/2000/svg">
<rect width="800" height="800" fill="#F3F3F3"/>
<path d="M206.828 525.082L197.414 551H193.566L204.406 522.562H206.887L206.828 525.082ZM214.719 551L205.285 525.082L205.227 522.562H207.707L218.586 551H214.719ZM214.23 540.473V543.559H198.254V540.473H214.23ZM235.539 529.867H238.82V550.551C238.82 552.413 238.443 554.001 237.688 555.316C236.932 556.632 235.878 557.628 234.523 558.305C233.182 558.995 231.633 559.34 229.875 559.34C229.146 559.34 228.286 559.223 227.297 558.988C226.32 558.767 225.357 558.383 224.406 557.836C223.469 557.302 222.681 556.579 222.043 555.668L223.938 553.52C224.823 554.587 225.747 555.329 226.711 555.746C227.688 556.163 228.651 556.371 229.602 556.371C230.747 556.371 231.737 556.156 232.57 555.727C233.404 555.297 234.048 554.659 234.504 553.812C234.973 552.979 235.207 551.951 235.207 550.727V534.516L235.539 529.867ZM220.988 540.668V540.258C220.988 538.643 221.177 537.178 221.555 535.863C221.945 534.535 222.499 533.396 223.215 532.445C223.944 531.495 224.823 530.766 225.852 530.258C226.88 529.737 228.039 529.477 229.328 529.477C230.656 529.477 231.815 529.711 232.805 530.18C233.807 530.635 234.654 531.306 235.344 532.191C236.047 533.064 236.6 534.118 237.004 535.355C237.408 536.592 237.688 537.992 237.844 539.555V541.352C237.701 542.901 237.421 544.294 237.004 545.531C236.6 546.768 236.047 547.823 235.344 548.695C234.654 549.568 233.807 550.238 232.805 550.707C231.802 551.163 230.63 551.391 229.289 551.391C228.026 551.391 226.88 551.124 225.852 550.59C224.836 550.056 223.964 549.307 223.234 548.344C222.505 547.38 221.945 546.247 221.555 544.945C221.177 543.63 220.988 542.204 220.988 540.668ZM224.602 540.258V540.668C224.602 541.723 224.706 542.712 224.914 543.637C225.135 544.561 225.467 545.375 225.91 546.078C226.366 546.781 226.945 547.335 227.648 547.738C228.352 548.129 229.191 548.324 230.168 548.324C231.366 548.324 232.355 548.07 233.137 547.562C233.918 547.055 234.536 546.384 234.992 545.551C235.461 544.717 235.826 543.812 236.086 542.836V538.129C235.943 537.413 235.721 536.723 235.422 536.059C235.135 535.382 234.758 534.783 234.289 534.262C233.833 533.728 233.267 533.305 232.59 532.992C231.913 532.68 231.118 532.523 230.207 532.523C229.217 532.523 228.365 532.732 227.648 533.148C226.945 533.552 226.366 534.112 225.91 534.828C225.467 535.531 225.135 536.352 224.914 537.289C224.706 538.214 224.602 539.203 224.602 540.258ZM257.238 546.117V529.867H260.871V551H257.414L257.238 546.117ZM257.922 541.664L259.426 541.625C259.426 543.031 259.276 544.333 258.977 545.531C258.69 546.716 258.221 547.745 257.57 548.617C256.919 549.49 256.066 550.173 255.012 550.668C253.957 551.15 252.674 551.391 251.164 551.391C250.135 551.391 249.191 551.241 248.332 550.941C247.486 550.642 246.757 550.18 246.145 549.555C245.533 548.93 245.057 548.116 244.719 547.113C244.393 546.111 244.23 544.906 244.23 543.5V529.867H247.844V543.539C247.844 544.49 247.948 545.277 248.156 545.902C248.378 546.514 248.671 547.003 249.035 547.367C249.413 547.719 249.829 547.966 250.285 548.109C250.754 548.253 251.236 548.324 251.73 548.324C253.267 548.324 254.484 548.031 255.383 547.445C256.281 546.846 256.926 546.046 257.316 545.043C257.72 544.027 257.922 542.901 257.922 541.664ZM278.84 547.387V536.508C278.84 535.674 278.671 534.952 278.332 534.34C278.007 533.715 277.512 533.233 276.848 532.895C276.184 532.556 275.363 532.387 274.387 532.387C273.475 532.387 272.674 532.543 271.984 532.855C271.307 533.168 270.773 533.578 270.383 534.086C270.005 534.594 269.816 535.141 269.816 535.727H266.203C266.203 534.971 266.398 534.223 266.789 533.48C267.18 532.738 267.74 532.068 268.469 531.469C269.211 530.857 270.096 530.375 271.125 530.023C272.167 529.659 273.326 529.477 274.602 529.477C276.138 529.477 277.492 529.737 278.664 530.258C279.849 530.779 280.773 531.566 281.438 532.621C282.115 533.663 282.453 534.971 282.453 536.547V546.391C282.453 547.094 282.512 547.842 282.629 548.637C282.759 549.431 282.948 550.115 283.195 550.688V551H279.426C279.243 550.583 279.1 550.03 278.996 549.34C278.892 548.637 278.84 547.986 278.84 547.387ZM279.465 538.188L279.504 540.727H275.852C274.823 540.727 273.905 540.811 273.098 540.98C272.29 541.137 271.613 541.378 271.066 541.703C270.52 542.029 270.103 542.439 269.816 542.934C269.53 543.415 269.387 543.982 269.387 544.633C269.387 545.297 269.536 545.902 269.836 546.449C270.135 546.996 270.585 547.432 271.184 547.758C271.796 548.07 272.544 548.227 273.43 548.227C274.536 548.227 275.513 547.992 276.359 547.523C277.206 547.055 277.876 546.482 278.371 545.805C278.879 545.128 279.152 544.47 279.191 543.832L280.734 545.57C280.643 546.117 280.396 546.723 279.992 547.387C279.589 548.051 279.048 548.689 278.371 549.301C277.707 549.9 276.913 550.401 275.988 550.805C275.077 551.195 274.048 551.391 272.902 551.391C271.47 551.391 270.214 551.111 269.133 550.551C268.065 549.991 267.232 549.242 266.633 548.305C266.047 547.354 265.754 546.293 265.754 545.121C265.754 543.988 265.975 542.992 266.418 542.133C266.861 541.26 267.499 540.538 268.332 539.965C269.165 539.379 270.168 538.936 271.34 538.637C272.512 538.337 273.82 538.188 275.266 538.188H279.465ZM291.75 533.188V551H288.137V529.867H291.652L291.75 533.188ZM298.352 529.75L298.332 533.109C298.033 533.044 297.746 533.005 297.473 532.992C297.212 532.966 296.913 532.953 296.574 532.953C295.741 532.953 295.005 533.083 294.367 533.344C293.729 533.604 293.189 533.969 292.746 534.438C292.303 534.906 291.952 535.466 291.691 536.117C291.444 536.755 291.281 537.458 291.203 538.227L290.188 538.812C290.188 537.536 290.311 536.339 290.559 535.219C290.819 534.099 291.216 533.109 291.75 532.25C292.284 531.378 292.961 530.701 293.781 530.219C294.615 529.724 295.604 529.477 296.75 529.477C297.01 529.477 297.31 529.509 297.648 529.574C297.987 529.626 298.221 529.685 298.352 529.75ZM314.621 546.898V521H318.254V551H314.934L314.621 546.898ZM300.402 540.668V540.258C300.402 538.643 300.598 537.178 300.988 535.863C301.392 534.535 301.958 533.396 302.688 532.445C303.43 531.495 304.309 530.766 305.324 530.258C306.353 529.737 307.499 529.477 308.762 529.477C310.09 529.477 311.249 529.711 312.238 530.18C313.241 530.635 314.087 531.306 314.777 532.191C315.48 533.064 316.034 534.118 316.438 535.355C316.841 536.592 317.121 537.992 317.277 539.555V541.352C317.134 542.901 316.854 544.294 316.438 545.531C316.034 546.768 315.48 547.823 314.777 548.695C314.087 549.568 313.241 550.238 312.238 550.707C311.236 551.163 310.064 551.391 308.723 551.391C307.486 551.391 306.353 551.124 305.324 550.59C304.309 550.056 303.43 549.307 302.688 548.344C301.958 547.38 301.392 546.247 300.988 544.945C300.598 543.63 300.402 542.204 300.402 540.668ZM304.035 540.258V540.668C304.035 541.723 304.139 542.712 304.348 543.637C304.569 544.561 304.908 545.375 305.363 546.078C305.819 546.781 306.398 547.335 307.102 547.738C307.805 548.129 308.645 548.324 309.621 548.324C310.819 548.324 311.802 548.07 312.57 547.562C313.352 547.055 313.977 546.384 314.445 545.551C314.914 544.717 315.279 543.812 315.539 542.836V538.129C315.383 537.413 315.155 536.723 314.855 536.059C314.569 535.382 314.191 534.783 313.723 534.262C313.267 533.728 312.701 533.305 312.023 532.992C311.359 532.68 310.572 532.523 309.66 532.523C308.671 532.523 307.818 532.732 307.102 533.148C306.398 533.552 305.819 534.112 305.363 534.828C304.908 535.531 304.569 536.352 304.348 537.289C304.139 538.214 304.035 539.203 304.035 540.258ZM336.34 547.387V536.508C336.34 535.674 336.171 534.952 335.832 534.34C335.507 533.715 335.012 533.233 334.348 532.895C333.684 532.556 332.863 532.387 331.887 532.387C330.975 532.387 330.174 532.543 329.484 532.855C328.807 533.168 328.273 533.578 327.883 534.086C327.505 534.594 327.316 535.141 327.316 535.727H323.703C323.703 534.971 323.898 534.223 324.289 533.48C324.68 532.738 325.24 532.068 325.969 531.469C326.711 530.857 327.596 530.375 328.625 530.023C329.667 529.659 330.826 529.477 332.102 529.477C333.638 529.477 334.992 529.737 336.164 530.258C337.349 530.779 338.273 531.566 338.938 532.621C339.615 533.663 339.953 534.971 339.953 536.547V546.391C339.953 547.094 340.012 547.842 340.129 548.637C340.259 549.431 340.448 550.115 340.695 550.688V551H336.926C336.743 550.583 336.6 550.03 336.496 549.34C336.392 548.637 336.34 547.986 336.34 547.387ZM336.965 538.188L337.004 540.727H333.352C332.323 540.727 331.405 540.811 330.598 540.98C329.79 541.137 329.113 541.378 328.566 541.703C328.02 542.029 327.603 542.439 327.316 542.934C327.03 543.415 326.887 543.982 326.887 544.633C326.887 545.297 327.036 545.902 327.336 546.449C327.635 546.996 328.085 547.432 328.684 547.758C329.296 548.07 330.044 548.227 330.93 548.227C332.036 548.227 333.013 547.992 333.859 547.523C334.706 547.055 335.376 546.482 335.871 545.805C336.379 545.128 336.652 544.47 336.691 543.832L338.234 545.57C338.143 546.117 337.896 546.723 337.492 547.387C337.089 548.051 336.548 548.689 335.871 549.301C335.207 549.9 334.413 550.401 333.488 550.805C332.577 551.195 331.548 551.391 330.402 551.391C328.97 551.391 327.714 551.111 326.633 550.551C325.565 549.991 324.732 549.242 324.133 548.305C323.547 547.354 323.254 546.293 323.254 545.121C323.254 543.988 323.475 542.992 323.918 542.133C324.361 541.26 324.999 540.538 325.832 539.965C326.665 539.379 327.668 538.936 328.84 538.637C330.012 538.337 331.32 538.188 332.766 538.188H336.965ZM349.25 534.379V551H345.637V529.867H349.055L349.25 534.379ZM348.391 539.633L346.887 539.574C346.9 538.129 347.115 536.794 347.531 535.57C347.948 534.333 348.534 533.259 349.289 532.348C350.044 531.436 350.943 530.733 351.984 530.238C353.039 529.73 354.204 529.477 355.48 529.477C356.522 529.477 357.46 529.62 358.293 529.906C359.126 530.18 359.836 530.622 360.422 531.234C361.021 531.846 361.477 532.641 361.789 533.617C362.102 534.581 362.258 535.759 362.258 537.152V551H358.625V537.113C358.625 536.007 358.462 535.121 358.137 534.457C357.811 533.78 357.336 533.292 356.711 532.992C356.086 532.68 355.318 532.523 354.406 532.523C353.508 532.523 352.688 532.712 351.945 533.09C351.216 533.467 350.585 533.988 350.051 534.652C349.53 535.316 349.12 536.078 348.82 536.938C348.534 537.784 348.391 538.682 348.391 539.633ZM381.066 546.898V521H384.699V551H381.379L381.066 546.898ZM366.848 540.668V540.258C366.848 538.643 367.043 537.178 367.434 535.863C367.837 534.535 368.404 533.396 369.133 532.445C369.875 531.495 370.754 530.766 371.77 530.258C372.798 529.737 373.944 529.477 375.207 529.477C376.535 529.477 377.694 529.711 378.684 530.18C379.686 530.635 380.533 531.306 381.223 532.191C381.926 533.064 382.479 534.118 382.883 535.355C383.286 536.592 383.566 537.992 383.723 539.555V541.352C383.579 542.901 383.299 544.294 382.883 545.531C382.479 546.768 381.926 547.823 381.223 548.695C380.533 549.568 379.686 550.238 378.684 550.707C377.681 551.163 376.509 551.391 375.168 551.391C373.931 551.391 372.798 551.124 371.77 550.59C370.754 550.056 369.875 549.307 369.133 548.344C368.404 547.38 367.837 546.247 367.434 544.945C367.043 543.63 366.848 542.204 366.848 540.668ZM370.48 540.258V540.668C370.48 541.723 370.585 542.712 370.793 543.637C371.014 544.561 371.353 545.375 371.809 546.078C372.264 546.781 372.844 547.335 373.547 547.738C374.25 548.129 375.09 548.324 376.066 548.324C377.264 548.324 378.247 548.07 379.016 547.562C379.797 547.055 380.422 546.384 380.891 545.551C381.359 544.717 381.724 543.812 381.984 542.836V538.129C381.828 537.413 381.6 536.723 381.301 536.059C381.014 535.382 380.637 534.783 380.168 534.262C379.712 533.728 379.146 533.305 378.469 532.992C377.805 532.68 377.017 532.523 376.105 532.523C375.116 532.523 374.263 532.732 373.547 533.148C372.844 533.552 372.264 534.112 371.809 534.828C371.353 535.531 371.014 536.352 370.793 537.289C370.585 538.214 370.48 539.203 370.48 540.258ZM389.367 540.668V540.219C389.367 538.695 389.589 537.283 390.031 535.98C390.474 534.665 391.112 533.526 391.945 532.562C392.779 531.586 393.788 530.831 394.973 530.297C396.158 529.75 397.486 529.477 398.957 529.477C400.441 529.477 401.776 529.75 402.961 530.297C404.159 530.831 405.174 531.586 406.008 532.562C406.854 533.526 407.499 534.665 407.941 535.98C408.384 537.283 408.605 538.695 408.605 540.219V540.668C408.605 542.191 408.384 543.604 407.941 544.906C407.499 546.208 406.854 547.348 406.008 548.324C405.174 549.288 404.165 550.043 402.98 550.59C401.809 551.124 400.48 551.391 398.996 551.391C397.512 551.391 396.177 551.124 394.992 550.59C393.807 550.043 392.792 549.288 391.945 548.324C391.112 547.348 390.474 546.208 390.031 544.906C389.589 543.604 389.367 542.191 389.367 540.668ZM392.98 540.219V540.668C392.98 541.723 393.104 542.719 393.352 543.656C393.599 544.581 393.97 545.401 394.465 546.117C394.973 546.833 395.604 547.4 396.359 547.816C397.115 548.22 397.993 548.422 398.996 548.422C399.986 548.422 400.852 548.22 401.594 547.816C402.349 547.4 402.974 546.833 403.469 546.117C403.964 545.401 404.335 544.581 404.582 543.656C404.842 542.719 404.973 541.723 404.973 540.668V540.219C404.973 539.177 404.842 538.194 404.582 537.27C404.335 536.332 403.957 535.505 403.449 534.789C402.954 534.06 402.329 533.487 401.574 533.07C400.832 532.654 399.96 532.445 398.957 532.445C397.967 532.445 397.095 532.654 396.34 533.07C395.598 533.487 394.973 534.06 394.465 534.789C393.97 535.505 393.599 536.332 393.352 537.27C393.104 538.194 392.98 539.177 392.98 540.219ZM426.984 529.867V551H423.352V529.867H426.984ZM423.078 524.262C423.078 523.676 423.254 523.181 423.605 522.777C423.97 522.374 424.504 522.172 425.207 522.172C425.897 522.172 426.424 522.374 426.789 522.777C427.167 523.181 427.355 523.676 427.355 524.262C427.355 524.822 427.167 525.303 426.789 525.707C426.424 526.098 425.897 526.293 425.207 526.293C424.504 526.293 423.97 526.098 423.605 525.707C423.254 525.303 423.078 524.822 423.078 524.262ZM436.379 534.066V551H432.746V529.867H436.184L436.379 534.066ZM435.637 539.633L433.957 539.574C433.97 538.129 434.159 536.794 434.523 535.57C434.888 534.333 435.428 533.259 436.145 532.348C436.861 531.436 437.753 530.733 438.82 530.238C439.888 529.73 441.125 529.477 442.531 529.477C443.521 529.477 444.432 529.62 445.266 529.906C446.099 530.18 446.822 530.616 447.434 531.215C448.046 531.814 448.521 532.582 448.859 533.52C449.198 534.457 449.367 535.59 449.367 536.918V551H445.754V537.094C445.754 535.987 445.565 535.102 445.188 534.438C444.823 533.773 444.302 533.292 443.625 532.992C442.948 532.68 442.154 532.523 441.242 532.523C440.174 532.523 439.283 532.712 438.566 533.09C437.85 533.467 437.277 533.988 436.848 534.652C436.418 535.316 436.105 536.078 435.91 536.938C435.728 537.784 435.637 538.682 435.637 539.633ZM449.328 537.641L446.906 538.383C446.919 537.224 447.108 536.111 447.473 535.043C447.85 533.975 448.391 533.025 449.094 532.191C449.81 531.358 450.689 530.701 451.73 530.219C452.772 529.724 453.964 529.477 455.305 529.477C456.438 529.477 457.44 529.626 458.312 529.926C459.198 530.225 459.94 530.688 460.539 531.312C461.151 531.924 461.613 532.712 461.926 533.676C462.238 534.639 462.395 535.785 462.395 537.113V551H458.762V537.074C458.762 535.889 458.573 534.971 458.195 534.32C457.831 533.656 457.31 533.194 456.633 532.934C455.969 532.66 455.174 532.523 454.25 532.523C453.456 532.523 452.753 532.66 452.141 532.934C451.529 533.207 451.014 533.585 450.598 534.066C450.181 534.535 449.862 535.076 449.641 535.688C449.432 536.299 449.328 536.951 449.328 537.641ZM480.324 547.387V536.508C480.324 535.674 480.155 534.952 479.816 534.34C479.491 533.715 478.996 533.233 478.332 532.895C477.668 532.556 476.848 532.387 475.871 532.387C474.96 532.387 474.159 532.543 473.469 532.855C472.792 533.168 472.258 533.578 471.867 534.086C471.49 534.594 471.301 535.141 471.301 535.727H467.688C467.688 534.971 467.883 534.223 468.273 533.48C468.664 532.738 469.224 532.068 469.953 531.469C470.695 530.857 471.581 530.375 472.609 530.023C473.651 529.659 474.81 529.477 476.086 529.477C477.622 529.477 478.977 529.737 480.148 530.258C481.333 530.779 482.258 531.566 482.922 532.621C483.599 533.663 483.938 534.971 483.938 536.547V546.391C483.938 547.094 483.996 547.842 484.113 548.637C484.243 549.431 484.432 550.115 484.68 550.688V551H480.91C480.728 550.583 480.585 550.03 480.48 549.34C480.376 548.637 480.324 547.986 480.324 547.387ZM480.949 538.188L480.988 540.727H477.336C476.307 540.727 475.389 540.811 474.582 540.98C473.775 541.137 473.098 541.378 472.551 541.703C472.004 542.029 471.587 542.439 471.301 542.934C471.014 543.415 470.871 543.982 470.871 544.633C470.871 545.297 471.021 545.902 471.32 546.449C471.62 546.996 472.069 547.432 472.668 547.758C473.28 548.07 474.029 548.227 474.914 548.227C476.021 548.227 476.997 547.992 477.844 547.523C478.69 547.055 479.361 546.482 479.855 545.805C480.363 545.128 480.637 544.47 480.676 543.832L482.219 545.57C482.128 546.117 481.88 546.723 481.477 547.387C481.073 548.051 480.533 548.689 479.855 549.301C479.191 549.9 478.397 550.401 477.473 550.805C476.561 551.195 475.533 551.391 474.387 551.391C472.954 551.391 471.698 551.111 470.617 550.551C469.549 549.991 468.716 549.242 468.117 548.305C467.531 547.354 467.238 546.293 467.238 545.121C467.238 543.988 467.46 542.992 467.902 542.133C468.345 541.26 468.983 540.538 469.816 539.965C470.65 539.379 471.652 538.936 472.824 538.637C473.996 538.337 475.305 538.188 476.75 538.188H480.949ZM503.312 529.867H506.594V550.551C506.594 552.413 506.216 554.001 505.461 555.316C504.706 556.632 503.651 557.628 502.297 558.305C500.956 558.995 499.406 559.34 497.648 559.34C496.919 559.34 496.06 559.223 495.07 558.988C494.094 558.767 493.13 558.383 492.18 557.836C491.242 557.302 490.454 556.579 489.816 555.668L491.711 553.52C492.596 554.587 493.521 555.329 494.484 555.746C495.461 556.163 496.424 556.371 497.375 556.371C498.521 556.371 499.51 556.156 500.344 555.727C501.177 555.297 501.822 554.659 502.277 553.812C502.746 552.979 502.98 551.951 502.98 550.727V534.516L503.312 529.867ZM488.762 540.668V540.258C488.762 538.643 488.951 537.178 489.328 535.863C489.719 534.535 490.272 533.396 490.988 532.445C491.717 531.495 492.596 530.766 493.625 530.258C494.654 529.737 495.812 529.477 497.102 529.477C498.43 529.477 499.589 529.711 500.578 530.18C501.581 530.635 502.427 531.306 503.117 532.191C503.82 533.064 504.374 534.118 504.777 535.355C505.181 536.592 505.461 537.992 505.617 539.555V541.352C505.474 542.901 505.194 544.294 504.777 545.531C504.374 546.768 503.82 547.823 503.117 548.695C502.427 549.568 501.581 550.238 500.578 550.707C499.576 551.163 498.404 551.391 497.062 551.391C495.799 551.391 494.654 551.124 493.625 550.59C492.609 550.056 491.737 549.307 491.008 548.344C490.279 547.38 489.719 546.247 489.328 544.945C488.951 543.63 488.762 542.204 488.762 540.668ZM492.375 540.258V540.668C492.375 541.723 492.479 542.712 492.688 543.637C492.909 544.561 493.241 545.375 493.684 546.078C494.139 546.781 494.719 547.335 495.422 547.738C496.125 548.129 496.965 548.324 497.941 548.324C499.139 548.324 500.129 548.07 500.91 547.562C501.691 547.055 502.31 546.384 502.766 545.551C503.234 544.717 503.599 543.812 503.859 542.836V538.129C503.716 537.413 503.495 536.723 503.195 536.059C502.909 535.382 502.531 534.783 502.062 534.262C501.607 533.728 501.04 533.305 500.363 532.992C499.686 532.68 498.892 532.523 497.98 532.523C496.991 532.523 496.138 532.732 495.422 533.148C494.719 533.552 494.139 534.112 493.684 534.828C493.241 535.531 492.909 536.352 492.688 537.289C492.479 538.214 492.375 539.203 492.375 540.258ZM520.852 551.391C519.38 551.391 518.046 551.143 516.848 550.648C515.663 550.141 514.641 549.431 513.781 548.52C512.935 547.608 512.284 546.527 511.828 545.277C511.372 544.027 511.145 542.66 511.145 541.176V540.355C511.145 538.637 511.398 537.107 511.906 535.766C512.414 534.411 513.104 533.266 513.977 532.328C514.849 531.391 515.839 530.681 516.945 530.199C518.052 529.717 519.198 529.477 520.383 529.477C521.893 529.477 523.195 529.737 524.289 530.258C525.396 530.779 526.301 531.508 527.004 532.445C527.707 533.37 528.228 534.464 528.566 535.727C528.905 536.977 529.074 538.344 529.074 539.828V541.449H513.293V538.5H525.461V538.227C525.409 537.289 525.214 536.378 524.875 535.492C524.549 534.607 524.029 533.878 523.312 533.305C522.596 532.732 521.62 532.445 520.383 532.445C519.562 532.445 518.807 532.621 518.117 532.973C517.427 533.311 516.835 533.819 516.34 534.496C515.845 535.173 515.461 536 515.188 536.977C514.914 537.953 514.777 539.079 514.777 540.355V541.176C514.777 542.178 514.914 543.122 515.188 544.008C515.474 544.88 515.884 545.648 516.418 546.312C516.965 546.977 517.622 547.497 518.391 547.875C519.172 548.253 520.057 548.441 521.047 548.441C522.323 548.441 523.404 548.181 524.289 547.66C525.174 547.139 525.949 546.443 526.613 545.57L528.801 547.309C528.345 547.999 527.766 548.656 527.062 549.281C526.359 549.906 525.493 550.414 524.465 550.805C523.449 551.195 522.245 551.391 520.852 551.391ZM536.887 534.066V551H533.254V529.867H536.691L536.887 534.066ZM536.145 539.633L534.465 539.574C534.478 538.129 534.667 536.794 535.031 535.57C535.396 534.333 535.936 533.259 536.652 532.348C537.368 531.436 538.26 530.733 539.328 530.238C540.396 529.73 541.633 529.477 543.039 529.477C544.029 529.477 544.94 529.62 545.773 529.906C546.607 530.18 547.329 530.616 547.941 531.215C548.553 531.814 549.029 532.582 549.367 533.52C549.706 534.457 549.875 535.59 549.875 536.918V551H546.262V537.094C546.262 535.987 546.073 535.102 545.695 534.438C545.331 533.773 544.81 533.292 544.133 532.992C543.456 532.68 542.661 532.523 541.75 532.523C540.682 532.523 539.79 532.712 539.074 533.09C538.358 533.467 537.785 533.988 537.355 534.652C536.926 535.316 536.613 536.078 536.418 536.938C536.236 537.784 536.145 538.682 536.145 539.633ZM549.836 537.641L547.414 538.383C547.427 537.224 547.616 536.111 547.98 535.043C548.358 533.975 548.898 533.025 549.602 532.191C550.318 531.358 551.197 530.701 552.238 530.219C553.28 529.724 554.471 529.477 555.812 529.477C556.945 529.477 557.948 529.626 558.82 529.926C559.706 530.225 560.448 530.688 561.047 531.312C561.659 531.924 562.121 532.712 562.434 533.676C562.746 534.639 562.902 535.785 562.902 537.113V551H559.27V537.074C559.27 535.889 559.081 534.971 558.703 534.32C558.339 533.656 557.818 533.194 557.141 532.934C556.477 532.66 555.682 532.523 554.758 532.523C553.964 532.523 553.26 532.66 552.648 532.934C552.036 533.207 551.522 533.585 551.105 534.066C550.689 534.535 550.37 535.076 550.148 535.688C549.94 536.299 549.836 536.951 549.836 537.641ZM578.352 549.086C578.352 548.474 578.54 547.96 578.918 547.543C579.309 547.113 579.868 546.898 580.598 546.898C581.327 546.898 581.88 547.113 582.258 547.543C582.648 547.96 582.844 548.474 582.844 549.086C582.844 549.685 582.648 550.193 582.258 550.609C581.88 551.026 581.327 551.234 580.598 551.234C579.868 551.234 579.309 551.026 578.918 550.609C578.54 550.193 578.352 549.685 578.352 549.086ZM588.898 549.086C588.898 548.474 589.087 547.96 589.465 547.543C589.855 547.113 590.415 546.898 591.145 546.898C591.874 546.898 592.427 547.113 592.805 547.543C593.195 547.96 593.391 548.474 593.391 549.086C593.391 549.685 593.195 550.193 592.805 550.609C592.427 551.026 591.874 551.234 591.145 551.234C590.415 551.234 589.855 551.026 589.465 550.609C589.087 550.193 588.898 549.685 588.898 549.086ZM599.445 549.086C599.445 548.474 599.634 547.96 600.012 547.543C600.402 547.113 600.962 546.898 601.691 546.898C602.421 546.898 602.974 547.113 603.352 547.543C603.742 547.96 603.938 548.474 603.938 549.086C603.938 549.685 603.742 550.193 603.352 550.609C602.974 551.026 602.421 551.234 601.691 551.234C600.962 551.234 600.402 551.026 600.012 550.609C599.634 550.193 599.445 549.685 599.445 549.086Z" fill="#ADADAD"/>
<g clip-path="url(#clip0_100_17)">
<path d="M378.521 287.125C378.521 291.402 376.823 295.503 373.799 298.527C370.775 301.551 366.673 303.25 362.396 303.25C358.12 303.25 354.018 301.551 350.994 298.527C347.97 295.503 346.271 291.402 346.271 287.125C346.271 282.848 347.97 278.747 350.994 275.723C354.018 272.699 358.12 271 362.396 271C366.673 271 370.775 272.699 373.799 275.723C376.823 278.747 378.521 282.848 378.521 287.125V287.125Z" fill="#ADADAD"/>
<path d="M335.521 238.75C329.819 238.75 324.351 241.015 320.319 245.047C316.287 249.079 314.021 254.548 314.021 260.25V367.75C314.021 373.452 316.287 378.921 320.319 382.953C324.351 386.985 329.819 389.25 335.521 389.25H464.521C470.224 389.25 475.692 386.985 479.724 382.953C483.756 378.921 486.021 373.452 486.021 367.75V260.25C486.021 254.548 483.756 249.079 479.724 245.047C475.692 241.015 470.224 238.75 464.521 238.75H335.521V238.75ZM464.521 249.5C467.373 249.5 470.107 250.633 472.123 252.649C474.139 254.665 475.271 257.399 475.271 260.25V330.125L434.669 309.195C433.661 308.69 432.519 308.515 431.406 308.694C430.293 308.873 429.264 309.398 428.466 310.194L388.583 350.077L359.988 331.028C358.956 330.341 357.718 330.031 356.483 330.153C355.249 330.274 354.095 330.819 353.216 331.694L324.771 357V260.25C324.771 257.399 325.904 254.665 327.92 252.649C329.936 250.633 332.67 249.5 335.521 249.5H464.521Z" fill="#ADADAD"/>
</g>
<defs>
<clipPath id="clip0_100_17">
<rect width="172" height="172" fill="white" transform="translate(314 228)"/>
</clipPath>
</defs>
</svg>
