<svg width="28" height="28" viewBox="0 0 28 28" fill="none" xmlns="http://www.w3.org/2000/svg">
<path d="M6.47492 20.5625C7.69992 19.707 8.9152 19.0507 10.1208 18.5938C11.3263 18.1368 12.6194 17.9083 13.9999 17.9083C15.3805 17.9083 16.6784 18.1368 17.8937 18.5938C19.1089 19.0507 20.3291 19.707 21.5541 20.5625C22.4096 19.5125 23.0173 18.4528 23.377 17.3833C23.7367 16.3139 23.9166 15.1861 23.9166 14C23.9166 11.1806 22.9687 8.82293 21.0728 6.92709C19.177 5.03126 16.8194 4.08334 13.9999 4.08334C11.1805 4.08334 8.82284 5.03126 6.927 6.92709C5.03117 8.82293 4.08325 11.1806 4.08325 14C4.08325 15.1861 4.26797 16.3139 4.63742 17.3833C5.00686 18.4528 5.61936 19.5125 6.47492 20.5625ZM13.9999 14.875C12.8721 14.875 11.9242 14.491 11.1562 13.7229C10.3881 12.9549 10.0041 12.007 10.0041 10.8792C10.0041 9.7514 10.3881 8.80348 11.1562 8.03543C11.9242 7.26737 12.8721 6.88334 13.9999 6.88334C15.1277 6.88334 16.0756 7.26737 16.8437 8.03543C17.6117 8.80348 17.9958 9.7514 17.9958 10.8792C17.9958 12.007 17.6117 12.9549 16.8437 13.7229C16.0756 14.491 15.1277 14.875 13.9999 14.875ZM13.9999 25.6667C12.4055 25.6667 10.8985 25.3604 9.47909 24.7479C8.05964 24.1354 6.82006 23.2993 5.76034 22.2396C4.70061 21.1799 3.8645 19.9403 3.252 18.5208C2.6395 17.1014 2.33325 15.5945 2.33325 14C2.33325 12.3861 2.6395 10.8743 3.252 9.46459C3.8645 8.05487 4.70061 6.82015 5.76034 5.76043C6.82006 4.7007 8.05964 3.86459 9.47909 3.25209C10.8985 2.63959 12.4055 2.33334 13.9999 2.33334C15.6138 2.33334 17.1256 2.63959 18.5353 3.25209C19.9451 3.86459 21.1798 4.7007 22.2395 5.76043C23.2992 6.82015 24.1353 8.05487 24.7478 9.46459C25.3603 10.8743 25.6666 12.3861 25.6666 14C25.6666 15.5945 25.3603 17.1014 24.7478 18.5208C24.1353 19.9403 23.2992 21.1799 22.2395 22.2396C21.1798 23.2993 19.9451 24.1354 18.5353 24.7479C17.1256 25.3604 15.6138 25.6667 13.9999 25.6667ZM13.9999 23.9167C15.0694 23.9167 16.1145 23.7611 17.1353 23.45C18.1562 23.1389 19.1624 22.5945 20.1541 21.8167C19.1624 21.1167 18.1513 20.582 17.1208 20.2125C16.0902 19.8431 15.0499 19.6583 13.9999 19.6583C12.9499 19.6583 11.9096 19.8431 10.8791 20.2125C9.84853 20.582 8.83742 21.1167 7.84575 21.8167C8.83742 22.5945 9.84367 23.1389 10.8645 23.45C11.8853 23.7611 12.9305 23.9167 13.9999 23.9167ZM13.9999 13.125C14.661 13.125 15.2006 12.916 15.6187 12.4979C16.0367 12.0799 16.2458 11.5403 16.2458 10.8792C16.2458 10.2181 16.0367 9.67848 15.6187 9.26043C15.2006 8.84237 14.661 8.63334 13.9999 8.63334C13.3388 8.63334 12.7992 8.84237 12.3812 9.26043C11.9631 9.67848 11.7541 10.2181 11.7541 10.8792C11.7541 11.5403 11.9631 12.0799 12.3812 12.4979C12.7992 12.916 13.3388 13.125 13.9999 13.125Z" fill="#CCCCCC"/>
</svg>
