<svg width="32" height="32" viewBox="0 0 32 32" fill="none" xmlns="http://www.w3.org/2000/svg">
<path d="M26.0428 18.076L10.6542 31.3119C8.84081 32.8739 6 31.6044 6 29.2338V2.76213C5.99954 2.23158 6.15464 1.71215 6.44673 1.26603C6.73882 0.819913 7.15551 0.466026 7.64692 0.246747C8.13832 0.0274674 8.6836 -0.0479083 9.21746 0.029646C9.75131 0.1072 10.2511 0.334397 10.657 0.684028L26.04 13.9198C26.3415 14.1789 26.5832 14.4983 26.7488 14.8568C26.9143 15.2152 27 15.6043 27 15.9979C27 16.3916 26.9143 16.7807 26.7488 17.1391C26.5832 17.4976 26.3415 17.817 26.04 18.076H26.0428Z" fill="#00FF7A"/>
</svg>
