<svg width="176" height="32" viewBox="0 0 176 32" fill="none" xmlns="http://www.w3.org/2000/svg">
<path d="M6.656 12.344V22.104C6.656 22.7653 6.80533 23.2453 7.104 23.544C7.424 23.8213 7.95733 23.96 8.704 23.96H10.944V27H8.064C6.42133 27 5.16267 26.616 4.288 25.848C3.41333 25.08 2.976 23.832 2.976 22.104V12.344H0.896V9.368H2.976V4.984H6.656V9.368H10.944V12.344H6.656ZM30.4663 17.752C30.4663 18.4133 30.4236 19.0107 30.3383 19.544H16.8663C16.9729 20.952 17.4956 22.0827 18.4343 22.936C19.3729 23.7893 20.5249 24.216 21.8903 24.216C23.8529 24.216 25.2396 23.3947 26.0503 21.752H29.9862C29.4529 23.3733 28.4823 24.7067 27.0743 25.752C25.6876 26.776 23.9596 27.288 21.8903 27.288C20.2049 27.288 18.6903 26.9147 17.3463 26.168C16.0236 25.4 14.9783 24.3333 14.2103 22.968C13.4636 21.5813 13.0903 19.9813 13.0903 18.168C13.0903 16.3547 13.4529 14.7653 14.1783 13.4C14.9249 12.0133 15.9596 10.9467 17.2823 10.2C18.6263 9.45333 20.1623 9.08 21.8903 9.08C23.5543 9.08 25.0369 9.44267 26.3383 10.168C27.6396 10.8933 28.6529 11.9173 29.3783 13.24C30.1036 14.5413 30.4663 16.0453 30.4663 17.752ZM26.6583 16.6C26.6369 15.256 26.1569 14.1787 25.2183 13.368C24.2796 12.5573 23.1169 12.152 21.7303 12.152C20.4716 12.152 19.3943 12.5573 18.4983 13.368C17.6023 14.1573 17.0689 15.2347 16.8983 16.6H26.6583ZM32.8403 18.168C32.8403 16.3547 33.2029 14.7653 33.9283 13.4C34.6749 12.0133 35.6989 10.9467 37.0003 10.2C38.3016 9.45333 39.7949 9.08 41.4803 9.08C43.6136 9.08 45.3736 9.592 46.7603 10.616C48.1683 11.6187 49.1176 13.0587 49.6083 14.936H45.6723C45.3523 14.0613 44.8403 13.3787 44.1363 12.888C43.4323 12.3973 42.5469 12.152 41.4803 12.152C39.9869 12.152 38.7923 12.6853 37.8963 13.752C37.0216 14.7973 36.5843 16.2693 36.5843 18.168C36.5843 20.0667 37.0216 21.5493 37.8963 22.616C38.7923 23.6827 39.9869 24.216 41.4803 24.216C43.5923 24.216 44.9896 23.288 45.6723 21.432H49.6083C49.0963 23.224 48.1363 24.6533 46.7283 25.72C45.3203 26.7653 43.5709 27.288 41.4803 27.288C39.7949 27.288 38.3016 26.9147 37.0003 26.168C35.6989 25.4 34.6749 24.3333 33.9283 22.968C33.2029 21.5813 32.8403 19.9813 32.8403 18.168ZM62.3638 9.08C63.7078 9.08 64.9024 9.368 65.9478 9.944C67.0144 10.52 67.8464 11.3733 68.4438 12.504C69.0624 13.6347 69.3718 15 69.3718 16.6V27H65.7558V17.144C65.7558 15.5653 65.3611 14.36 64.5718 13.528C63.7824 12.6747 62.7051 12.248 61.3398 12.248C59.9744 12.248 58.8864 12.6747 58.0758 13.528C57.2864 14.36 56.8918 15.5653 56.8918 17.144V27H53.2438V3.32H56.8918V11.416C57.5104 10.6693 58.2891 10.0933 59.2278 9.688C60.1878 9.28267 61.2331 9.08 62.3638 9.08Z" fill="#00FF7A"/>
<path d="M81.8 27.288C80.4133 27.288 79.1653 27.0427 78.056 26.552C76.968 26.04 76.104 25.3573 75.464 24.504C74.824 23.6293 74.4827 22.6587 74.44 21.592H78.216C78.28 22.3387 78.632 22.968 79.272 23.48C79.9333 23.9707 80.7547 24.216 81.736 24.216C82.76 24.216 83.5493 24.024 84.104 23.64C84.68 23.2347 84.968 22.7227 84.968 22.104C84.968 21.4427 84.648 20.952 84.008 20.632C83.3893 20.312 82.3973 19.96 81.032 19.576C79.7093 19.2133 78.632 18.8613 77.8 18.52C76.968 18.1787 76.2427 17.656 75.624 16.952C75.0267 16.248 74.728 15.32 74.728 14.168C74.728 13.2293 75.0053 12.376 75.56 11.608C76.1147 10.8187 76.904 10.2 77.928 9.752C78.9733 9.304 80.168 9.08 81.512 9.08C83.5173 9.08 85.128 9.592 86.344 10.616C87.5813 11.6187 88.2427 12.9947 88.328 14.744H84.68C84.616 13.9547 84.296 13.3253 83.72 12.856C83.144 12.3867 82.3653 12.152 81.384 12.152C80.424 12.152 79.688 12.3333 79.176 12.696C78.664 13.0587 78.408 13.5387 78.408 14.136C78.408 14.6053 78.5787 15 78.92 15.32C79.2613 15.64 79.6773 15.896 80.168 16.088C80.6587 16.2587 81.384 16.4827 82.344 16.76C83.624 17.1013 84.6693 17.4533 85.48 17.816C86.312 18.1573 87.0267 18.6693 87.624 19.352C88.2213 20.0347 88.5307 20.9413 88.552 22.072C88.552 23.0747 88.2747 23.9707 87.72 24.76C87.1653 25.5493 86.376 26.168 85.352 26.616C84.3493 27.064 83.1653 27.288 81.8 27.288ZM96.7498 12.344V22.104C96.7498 22.7653 96.8991 23.2453 97.1978 23.544C97.5178 23.8213 98.0511 23.96 98.7978 23.96H101.038V27H98.1578C96.5151 27 95.2564 26.616 94.3818 25.848C93.5071 25.08 93.0698 23.832 93.0698 22.104V12.344H90.9898V9.368H93.0698V4.984H96.7498V9.368H101.038V12.344H96.7498ZM112.048 27.288C110.384 27.288 108.88 26.9147 107.536 26.168C106.192 25.4 105.136 24.3333 104.368 22.968C103.6 21.5813 103.216 19.9813 103.216 18.168C103.216 16.376 103.611 14.7867 104.4 13.4C105.189 12.0133 106.267 10.9467 107.632 10.2C108.997 9.45333 110.523 9.08 112.208 9.08C113.893 9.08 115.419 9.45333 116.784 10.2C118.149 10.9467 119.227 12.0133 120.016 13.4C120.805 14.7867 121.2 16.376 121.2 18.168C121.2 19.96 120.795 21.5493 119.984 22.936C119.173 24.3227 118.064 25.4 116.656 26.168C115.269 26.9147 113.733 27.288 112.048 27.288ZM112.048 24.12C112.987 24.12 113.861 23.896 114.672 23.448C115.504 23 116.176 22.328 116.688 21.432C117.2 20.536 117.456 19.448 117.456 18.168C117.456 16.888 117.211 15.8107 116.72 14.936C116.229 14.04 115.579 13.368 114.768 12.92C113.957 12.472 113.083 12.248 112.144 12.248C111.205 12.248 110.331 12.472 109.52 12.92C108.731 13.368 108.101 14.04 107.632 14.936C107.163 15.8107 106.928 16.888 106.928 18.168C106.928 20.0667 107.408 21.5387 108.368 22.584C109.349 23.608 110.576 24.12 112.048 24.12ZM128.454 11.928C128.988 11.032 129.692 10.3387 130.566 9.848C131.462 9.336 132.518 9.08 133.734 9.08V12.856H132.806C131.377 12.856 130.289 13.2187 129.542 13.944C128.817 14.6693 128.454 15.928 128.454 17.72V27H124.806V9.368H128.454V11.928ZM153.248 17.752C153.248 18.4133 153.205 19.0107 153.12 19.544H139.648C139.754 20.952 140.277 22.0827 141.216 22.936C142.154 23.7893 143.306 24.216 144.672 24.216C146.634 24.216 148.021 23.3947 148.832 21.752H152.767C152.234 23.3733 151.264 24.7067 149.856 25.752C148.469 26.776 146.741 27.288 144.672 27.288C142.986 27.288 141.472 26.9147 140.128 26.168C138.805 25.4 137.76 24.3333 136.992 22.968C136.245 21.5813 135.872 19.9813 135.872 18.168C135.872 16.3547 136.234 14.7653 136.96 13.4C137.706 12.0133 138.741 10.9467 140.064 10.2C141.408 9.45333 142.944 9.08 144.672 9.08C146.336 9.08 147.818 9.44267 149.12 10.168C150.421 10.8933 151.434 11.9173 152.16 13.24C152.885 14.5413 153.248 16.0453 153.248 17.752ZM149.44 16.6C149.418 15.256 148.938 14.1787 148 13.368C147.061 12.5573 145.898 12.152 144.512 12.152C143.253 12.152 142.176 12.5573 141.28 13.368C140.384 14.1573 139.85 15.2347 139.68 16.6H149.44Z" fill="#F4F4F4"/>
<path d="M170.693 17.0354L163.155 23.6299C162.267 24.4081 160.875 23.7756 160.875 22.5945V9.40551C160.875 9.14117 160.951 8.88237 161.094 8.6601C161.237 8.43783 161.441 8.26152 161.682 8.15226C161.922 8.04301 162.189 8.00546 162.451 8.0441C162.712 8.08274 162.957 8.19593 163.156 8.37013L170.691 14.9646C170.839 15.0937 170.957 15.2529 171.038 15.4314C171.119 15.61 171.161 15.8039 171.161 16C171.161 16.1961 171.119 16.39 171.038 16.5686C170.957 16.7472 170.839 16.9063 170.691 17.0354H170.693Z" fill="#00FF7A"/>
</svg>
