<svg width="46" height="71" viewBox="0 0 46 71" fill="none" xmlns="http://www.w3.org/2000/svg">
<path d="M43.5988 40.0651L10.3641 69.1408C6.44775 72.5722 0.312502 69.7835 0.312502 64.5758V6.42427C0.311503 5.25879 0.64647 4.11772 1.27729 3.13772C1.90811 2.15771 2.80805 1.38031 3.86933 0.898608C4.9306 0.416906 6.10824 0.251325 7.2612 0.421692C8.41416 0.59206 9.49358 1.09115 10.3702 1.85921L43.5927 30.935C44.2439 31.504 44.7658 32.2058 45.1233 32.9931C45.4809 33.7805 45.6659 34.6353 45.6659 35.5C45.6659 36.3648 45.4809 37.2196 45.1233 38.0069C44.7658 38.7943 44.2439 39.496 43.5927 40.0651H43.5988Z" fill="#00FF7A"/>
</svg>
